<?xml version="1.0" standalone="no"?>
<!DOCTYPE svg PUBLIC "-//W3C//DTD SVG 20010904//EN"
 "http://www.w3.org/TR/2001/REC-SVG-20010904/DTD/svg10.dtd">
<svg version="1.0" xmlns="http://www.w3.org/2000/svg"
 width="192.000000pt" height="192.000000pt" viewBox="0 0 192.000000 192.000000"
 preserveAspectRatio="xMidYMid meet">
<metadata>
Created by potrace 1.14, written by Peter Selinger 2001-2017
</metadata>
<g transform="translate(0.000000,192.000000) scale(0.100000,-0.100000)"
fill="#000000" stroke="none">
<path d="M405 1885 c-81 -17 -122 -33 -172 -66 -109 -75 -177 -181 -198 -312
-19 -116 -19 -990 0 -1097 16 -91 20 -102 60 -165 77 -122 184 -191 330 -214
34 -6 280 -9 570 -7 566 2 575 3 678 69 117 75 188 181 212 314 16 93 20 996
4 1078 -5 28 -11 60 -14 73 -12 67 -62 151 -127 212 -46 43 -136 94 -183 104
-16 4 -41 9 -55 13 -14 4 -254 8 -535 9 -375 1 -526 -2 -570 -11z"/>
</g>
</svg>
