<svg width="24" height="26" viewBox="0 0 24 26" fill="none" xmlns="http://www.w3.org/2000/svg">
<path d="M6.09436 13.2288C6.03221 12.8282 5.99996 12.4179 5.99996 12C5.99996 7.58172 9.60525 4 14.0526 4C18.4999 4 22.1052 7.58172 22.1052 12C22.1052 12.9981 21.9213 13.9535 21.5852 14.8345C21.5154 15.0175 21.4804 15.109 21.4646 15.1804C21.4489 15.2512 21.4428 15.301 21.4411 15.3735C21.4394 15.4466 21.4493 15.5272 21.4692 15.6883L21.8717 18.9585C21.9153 19.3125 21.9371 19.4895 21.8782 19.6182C21.8266 19.731 21.735 19.8205 21.6211 19.8695C21.4911 19.9254 21.3146 19.8995 20.9617 19.8478L17.7765 19.3809C17.6101 19.3565 17.527 19.3443 17.4512 19.3448C17.3763 19.3452 17.3245 19.3507 17.2511 19.3661C17.177 19.3817 17.0823 19.4172 16.893 19.4881C16.0097 19.819 15.0524 20 14.0526 20C13.6344 20 13.2237 19.9683 12.8227 19.9073M7.63158 24C10.5965 24 13 21.5376 13 18.5C13 15.4624 10.5965 13 7.63158 13C4.66668 13 2.26316 15.4624 2.26316 18.5C2.26316 19.1106 2.36028 19.6979 2.53955 20.2467C2.61533 20.4787 2.65322 20.5947 2.66566 20.6739C2.67864 20.7567 2.68091 20.8031 2.67608 20.8867C2.67145 20.9668 2.65141 21.0573 2.61134 21.2383L2 24L4.9948 23.591C5.15827 23.5687 5.24 23.5575 5.31137 23.558C5.38652 23.5585 5.42641 23.5626 5.50011 23.5773C5.5701 23.5912 5.67416 23.6279 5.88227 23.7014C6.43059 23.8949 7.01911 24 7.63158 24Z" stroke="#155EEF" stroke-width="2" stroke-linecap="round" stroke-linejoin="round"/>
</svg>
